<svg data-v-423bf9ae="" xmlns="http://www.w3.org/2000/svg" viewBox="0 0 355.40793641547094 60" class="font"><!----><!----><!----><g data-v-423bf9ae="" id="31327eab-38c5-4c10-9607-858e75dc1ac3" fill="white" transform="matrix(4.332129955291748,0,0,4.332129955291748,1.6462055444717407,-12.303250312805176)"><path d="M5.59 9.98L5.59 9.98L5.59 9.98Q5.05 9.97 4.12 9.97L4.12 9.97L4.12 9.97Q3.18 9.97 2.60 9.98L2.60 9.98L2.60 9.98Q2.14 11.58 2.06 11.95L2.06 11.95L2.06 11.95Q1.97 12.32 1.97 12.98L1.97 12.98L1.97 13.29L-0.38 13.29L-0.38 12.98L-0.38 12.98Q0.35 12.47 1.43 9.25L1.43 9.25L1.43 9.25Q2.51 6.03 2.84 4.99L2.84 4.99L2.84 4.99Q3.18 3.95 3.23 3.49L3.23 3.49L5.39 3.28L5.39 3.28Q5.39 3.81 6.31 6.33L6.31 6.33L6.31 6.33Q8.04 11.03 8.71 12.11L8.71 12.11L8.71 12.11Q9.03 12.66 9.44 12.98L9.44 12.98L9.44 13.29L6.47 13.29L6.47 12.98L6.47 12.98Q6.47 12.39 5.59 9.98ZM4.03 5.25L4.03 5.25L4.03 5.25Q3.57 6.58 2.87 8.96L2.87 8.96L5.29 8.96L5.29 8.96Q5.21 8.72 5.04 8.16L5.04 8.16L5.04 8.16Q4.68 6.92 4.03 5.25ZM13.93 12.46L13.93 12.46L13.93 12.46Q14.27 12.46 14.55 12.39L14.55 12.39L14.55 12.39Q14.88 11.97 15.05 11.19L15.05 11.19L15.05 11.19Q15.22 10.42 15.22 9.79L15.22 9.79L15.22 9.79Q15.22 7.57 14.06 7.57L14.06 7.57L14.06 7.57Q13.22 7.57 12.21 8.20L12.21 8.20L12.21 12.03L12.21 12.03Q13.12 12.46 13.93 12.46ZM10.40 14.55L10.40 14.55L10.40 9.03L10.40 9.03Q10.40 8.41 10.21 7.86L10.21 7.86L10.21 7.86Q10.02 7.31 9.72 7.14L9.72 7.14L9.69 6.83L11.97 6.29L12.14 6.55L12.14 6.55Q12.11 6.76 12.11 7.24L12.11 7.24L12.11 7.24Q13.05 6.30 14.07 6.30L14.07 6.30L14.07 6.30Q15.48 6.30 16.36 7.24L16.36 7.24L16.36 7.24Q17.23 8.18 17.23 9.52L17.23 9.52L17.23 9.52Q17.23 11.19 16.06 12.36L16.06 12.36L16.06 12.36Q14.88 13.54 13.38 13.54L13.38 13.54L13.38 13.54Q12.78 13.54 12.21 13.41L12.21 13.41L12.21 13.79L12.21 13.79Q12.21 15.46 12.77 16.09L12.77 16.09L12.77 16.39L10.35 16.69L10.35 16.69Q10.40 15.96 10.40 14.55ZM21.31 7.57L21.31 11.66L21.31 11.66Q21.31 12.17 21.57 12.17L21.57 12.17L21.57 12.17Q21.95 12.17 22.99 11.73L22.99 11.73L23.41 12.36L23.41 12.36Q22.85 12.73 22.08 13.08L22.08 13.08L22.08 13.08Q21.31 13.44 20.73 13.44L20.73 13.44L20.73 13.44Q19.50 13.44 19.50 12.03L19.50 12.03L19.50 7.57L19.50 7.57Q19.29 7.57 18.12 7.67L18.12 7.67L18.62 6.41L18.62 6.41Q18.87 6.45 19.52 6.48L19.52 6.48L19.52 6.48Q19.49 5.84 19.43 5.29L19.43 5.29L21.31 4.82L21.31 6.47L21.31 6.47Q21.87 6.45 23.51 6.29L23.51 6.29L22.96 7.73L22.96 7.73Q22.25 7.60 21.31 7.57L21.31 7.57ZM29.37 9.98L29.37 9.98L29.37 9.98Q28.84 9.97 27.90 9.97L27.90 9.97L27.90 9.97Q26.96 9.97 26.39 9.98L26.39 9.98L26.39 9.98Q25.93 11.58 25.84 11.95L25.84 11.95L25.84 11.95Q25.76 12.32 25.76 12.98L25.76 12.98L25.76 13.29L23.41 13.29L23.41 12.98L23.41 12.98Q24.14 12.47 25.21 9.25L25.21 9.25L25.21 9.25Q26.29 6.03 26.63 4.99L26.63 4.99L26.63 4.99Q26.96 3.95 27.02 3.49L27.02 3.49L29.18 3.28L29.18 3.28Q29.18 3.81 30.10 6.33L30.10 6.33L30.10 6.33Q31.82 11.03 32.49 12.11L32.49 12.11L32.49 12.11Q32.82 12.66 33.22 12.98L33.22 12.98L33.22 13.29L30.25 13.29L30.25 12.98L30.25 12.98Q30.25 12.39 29.37 9.98ZM27.82 5.25L27.82 5.25L27.82 5.25Q27.36 6.58 26.66 8.96L26.66 8.96L29.08 8.96L29.08 8.96Q28.99 8.72 28.83 8.16L28.83 8.16L28.83 8.16Q28.46 6.92 27.82 5.25ZM36.16 12.98L36.16 13.29L33.89 13.29L33.89 12.98L33.89 12.98Q34.12 12.29 34.12 10.95L34.12 10.95L34.12 5.45L34.12 5.45Q34.12 4.24 33.49 3.64L33.49 3.64L33.49 3.33L35.80 2.84L35.97 3.15L35.97 3.15Q35.92 3.54 35.92 5.88L35.92 5.88L35.92 8.60L38.02 7.00L38.02 7.00Q38.35 6.75 38.35 6.48L38.35 6.48L40.54 6.48L40.54 6.79L40.54 6.79Q40.01 6.86 39.07 7.62L39.07 7.62L37.10 9.20L39.62 11.90L39.62 11.90Q39.84 12.14 40.34 12.52L40.34 12.52L40.34 12.52Q40.84 12.91 41.16 12.98L41.16 12.98L41.16 13.29L38.50 13.29L38.50 13.29Q38.50 13.02 38.22 12.73L38.22 12.73L38.22 12.73Q37.84 12.26 35.92 10.15L35.92 10.15L35.92 10.78L35.92 10.78Q35.92 12.31 36.16 12.98L36.16 12.98ZM45.68 11.68L45.68 10.49L45.68 10.49Q45.18 10.30 44.57 10.30L44.57 10.30L44.57 10.30Q43.96 10.30 43.64 10.53L43.64 10.53L43.64 10.53Q43.43 10.79 43.43 11.23L43.43 11.23L43.43 11.23Q43.43 12.32 44.38 12.32L44.38 12.32L44.38 12.32Q45.16 12.32 45.68 11.68L45.68 11.68ZM43.81 13.54L43.81 13.54L43.81 13.54Q42.92 13.54 42.25 13.01L42.25 13.01L42.25 13.01Q41.58 12.47 41.58 11.47L41.58 11.47L41.58 11.47Q41.58 9.52 44.42 9.52L44.42 9.52L45.67 9.58L45.67 8.72L45.67 8.72Q45.67 7.99 45.30 7.55L45.30 7.55L45.30 7.55Q44.94 7.10 44.18 7.10L44.18 7.10L44.18 7.10Q44.02 7.10 43.75 7.27L43.75 7.27L43.75 7.27Q43.48 7.45 43.30 7.63L43.30 7.63L43.30 7.63Q42.73 8.18 42.38 8.53L42.38 8.53L42.38 8.53Q41.68 7.70 41.62 6.86L41.62 6.86L41.62 6.86Q43.41 6.30 44.65 6.30L44.65 6.30L44.65 6.30Q45.88 6.30 46.70 6.87L46.70 6.87L46.70 6.87Q47.53 7.45 47.53 8.68L47.53 8.68L47.53 10.88L47.53 10.88Q47.53 11.51 47.74 12.08L47.74 12.08L47.74 12.08Q47.95 12.66 48.26 12.85L48.26 12.85L48.29 13.16L46.28 13.58L46.28 13.58Q46.06 13.16 45.86 12.40L45.86 12.40L45.86 12.40Q45.50 12.80 45.28 12.98L45.28 12.98L45.28 12.98Q45.05 13.17 44.65 13.36L44.65 13.36L44.65 13.36Q44.25 13.54 43.81 13.54ZM52.72 13.55L52.72 13.55L52.72 13.55Q51.07 13.55 50.22 12.53L50.22 12.53L50.22 12.53Q49.36 11.51 49.36 9.97L49.36 9.97L49.36 9.97Q49.36 8.44 50.45 7.37L50.45 7.37L50.45 7.37Q51.53 6.30 53.20 6.30L53.20 6.30L53.20 6.30Q53.82 6.30 54.39 6.40L54.39 6.40L54.39 5.14L54.39 5.14Q54.39 4.21 53.76 3.64L53.76 3.64L53.76 3.33L56.10 2.84L56.24 3.15L56.24 3.15Q56.20 3.42 56.20 4.21L56.20 4.21L56.20 10.75L56.20 10.75Q56.20 11.40 56.39 11.96L56.39 11.96L56.39 11.96Q56.57 12.52 56.88 12.73L56.88 12.73L56.91 13.03L54.81 13.58L54.81 13.58Q54.66 13.15 54.53 12.63L54.53 12.63L54.53 12.63Q53.61 13.55 52.72 13.55ZM51.38 9.79L51.38 9.79L51.38 9.79Q51.38 10.85 51.76 11.64L51.76 11.64L51.76 11.64Q52.14 12.43 52.85 12.43L52.85 12.43L52.85 12.43Q53.56 12.43 54.39 11.77L54.39 11.77L54.39 7.85L54.39 7.85Q53.56 7.32 52.58 7.32L52.58 7.32L52.58 7.32Q52.16 7.32 51.93 7.50L51.93 7.50L51.93 7.50Q51.38 8.18 51.38 9.79ZM61.15 13.55L61.15 13.55L61.15 13.55Q59.93 13.55 58.97 12.64L58.97 12.64L58.97 12.64Q58.00 11.73 58.00 10.18L58.00 10.18L58.00 10.18Q58.00 8.64 59.02 7.47L59.02 7.47L59.02 7.47Q60.05 6.30 61.67 6.30L61.67 6.30L61.67 6.30Q63.04 6.30 63.71 7.18L63.71 7.18L63.71 7.18Q64.39 8.06 64.39 9.62L64.39 9.62L63.85 10.16L60.02 10.16L60.02 10.16Q60.03 11.17 60.56 11.72L60.56 11.72L60.56 11.72Q61.08 12.26 61.82 12.26L61.82 12.26L61.82 12.26Q62.55 12.26 64.04 11.49L64.04 11.49L64.39 12.03L64.39 12.03Q64.12 12.28 63.78 12.54L63.78 12.54L63.78 12.54Q63.45 12.81 62.66 13.18L62.66 13.18L62.66 13.18Q61.87 13.55 61.15 13.55ZM61.35 7.20L61.35 7.20L61.35 7.20Q60.83 7.20 60.52 7.41L60.52 7.41L60.52 7.41Q60.30 7.76 60.17 8.33L60.17 8.33L60.17 8.33Q60.05 8.90 60.03 9.35L60.03 9.35L62.48 9.21L62.48 9.21Q62.48 7.20 61.35 7.20ZM70.50 6.30L70.50 6.30L70.50 6.30Q71.83 6.30 72.27 7.48L72.27 7.48L72.27 7.48Q72.73 7.10 73.02 6.89L73.02 6.89L73.02 6.89Q73.30 6.68 73.74 6.49L73.74 6.49L73.74 6.49Q74.17 6.30 74.56 6.30L74.56 6.30L74.56 6.30Q75.61 6.30 76.19 6.95L76.19 6.95L76.19 6.95Q76.76 7.60 76.76 8.83L76.76 8.83L76.76 10.75L76.76 10.75Q76.76 12.00 77.18 12.98L77.18 12.98L77.18 13.29L74.72 13.29L74.72 12.98L74.72 12.98Q74.96 12.32 74.96 11.19L74.96 11.19L74.96 9.34L74.96 9.34Q74.96 8.54 74.76 8.15L74.76 8.15L74.76 8.15Q74.56 7.76 73.94 7.76L73.94 7.76L73.94 7.76Q73.32 7.76 72.45 8.25L72.45 8.25L72.45 8.25Q72.48 8.61 72.48 8.83L72.48 8.83L72.48 10.75L72.48 10.75Q72.48 12.00 72.90 12.98L72.90 12.98L72.90 13.29L70.57 13.29L70.57 12.98L70.57 12.98Q70.81 12.32 70.81 11.19L70.81 11.19L70.81 9.34L70.81 9.34Q70.81 8.54 70.63 8.15L70.63 8.15L70.63 8.15Q70.45 7.76 69.87 7.76L69.87 7.76L69.87 7.76Q69.29 7.76 68.32 8.34L68.32 8.34L68.32 10.78L68.32 10.78Q68.32 12.11 68.73 12.98L68.73 12.98L68.73 13.29L66.28 13.29L66.28 12.98L66.28 12.98Q66.51 12.26 66.51 11.09L66.51 11.09L66.51 9.02L66.51 9.02Q66.51 7.45 65.67 7.03L65.67 7.03L65.67 6.72L67.94 6.29L68.08 6.55L68.08 6.55Q68.19 6.83 68.25 7.45L68.25 7.45L68.25 7.45Q68.91 6.86 69.41 6.58L69.41 6.58L69.41 6.58Q69.90 6.30 70.50 6.30ZM80.84 3.16L80.99 3.25L80.99 3.25Q81.12 3.36 81.16 3.72L81.16 3.72L81.16 3.72Q81.21 4.09 81.21 4.28L81.21 4.28L81.21 4.28Q81.21 4.48 81.19 4.63L81.19 4.63L81.06 4.75L81.06 4.75Q80.44 4.93 79.45 5.00L79.45 5.00L79.30 4.93L79.30 4.93Q79.18 4.75 79.12 4.33L79.12 4.33L79.12 4.33Q79.06 3.91 79.06 3.74L79.06 3.74L79.06 3.74Q79.06 3.58 79.06 3.53L79.06 3.53L79.18 3.42L79.18 3.42Q79.94 3.16 80.68 3.16L80.68 3.16L80.84 3.16ZM81.26 7.78L81.26 7.78L81.26 10.78L81.26 10.78Q81.26 12.11 81.66 12.98L81.66 12.98L81.66 13.29L79.21 13.29L79.21 12.98L79.21 12.98Q79.45 12.26 79.45 11.09L79.45 11.09L79.45 9.02L79.45 9.02Q79.45 8.25 79.21 7.73L79.21 7.73L79.21 7.73Q78.97 7.22 78.61 7.03L78.61 7.03L78.61 6.72L81.17 6.24L81.34 6.52L81.34 6.52Q81.26 6.85 81.26 7.78Z"></path></g><!----><!----></svg>