<svg data-v-423bf9ae="" xmlns="http://www.w3.org/2000/svg" viewBox="0 0 329.87053767885 60" class="font"><!----><!----><!----><g data-v-423bf9ae="" id="bee6f935-cc3c-44e3-9053-72e3f13d1235" fill="black" transform="matrix(4.316546881052659,0,0,4.316546881052659,-1.1654647738587016,-14.46043116303126)"><path d="M6.69 14.55L8.15 14.55L5.01 3.88L3.40 3.88L0.27 14.55L1.64 14.55L2.45 11.55L5.87 11.55ZM4.17 5.29L5.54 10.33L2.79 10.33ZM9.41 6.24L9.41 17.25L10.70 17.25L10.70 14.00C11.07 14.45 11.76 14.71 12.57 14.71C14.04 14.71 15.22 13.83 15.22 11.58L15.22 9.28C15.22 7.20 14.39 6.08 12.70 6.08C11.69 6.08 10.96 6.40 10.60 6.92L10.53 6.24ZM10.70 8.88C10.70 7.76 11.34 7.21 12.33 7.21C13.45 7.21 13.93 7.87 13.93 9.25L13.93 11.51C13.93 13.05 13.30 13.58 12.31 13.58C11.40 13.58 10.70 13.10 10.70 11.76ZM19.40 13.54C18.52 13.54 18.16 13.22 18.16 12.00L18.16 7.66L20.06 7.66L20.06 6.52L18.17 6.52L18.17 4.58L16.86 4.58L16.86 11.96C16.86 13.83 17.40 14.71 19.12 14.71C19.50 14.71 19.89 14.66 20.06 14.62L20.06 13.47C19.88 13.51 19.64 13.54 19.40 13.54ZM30.88 14.55L32.34 14.55L29.20 3.88L27.59 3.88L24.46 14.55L25.83 14.55L26.64 11.55L30.06 11.55ZM28.36 5.29L29.74 10.33L26.98 10.33ZM39.59 6.24L38.04 6.24L35.69 9.51L34.89 9.51L34.89 3.74L33.60 3.74L33.60 14.55L34.89 14.55L34.89 10.65L35.69 10.65L38.40 14.55L40.01 14.55L36.75 10.02ZM45.39 14.55L46.54 14.55L46.54 8.83C46.54 6.79 45.54 6.08 43.85 6.08C41.96 6.08 41.05 6.90 41.05 8.79L42.22 8.79C42.22 7.53 42.78 7.14 43.79 7.14C44.84 7.14 45.30 7.67 45.30 8.90L45.30 9.93C44.91 9.87 44.34 9.83 43.96 9.83C41.73 9.83 40.80 10.64 40.80 12.38C40.80 13.94 41.73 14.71 43.23 14.71C44.11 14.71 44.90 14.43 45.35 13.78ZM45.30 11.80C45.30 13.03 44.46 13.65 43.51 13.65C42.56 13.65 42.08 13.19 42.08 12.26C42.08 11.28 42.59 10.81 44.00 10.81C44.34 10.81 44.93 10.85 45.30 10.91ZM52.86 14.55L53.98 14.55L53.98 3.74L52.70 3.74L52.70 6.79C52.32 6.36 51.62 6.08 50.82 6.08C49.35 6.08 48.17 6.96 48.17 9.21L48.17 11.51C48.17 13.59 49 14.71 50.69 14.71C51.70 14.71 52.42 14.41 52.78 13.87ZM52.70 11.91C52.70 13.03 52.05 13.58 51.06 13.58C49.94 13.58 49.46 12.92 49.46 11.54L49.46 9.28C49.46 7.74 50.09 7.21 51.09 7.21C52.00 7.21 52.70 7.69 52.70 9.03ZM60.20 12.22C60.17 13.17 59.78 13.61 58.65 13.61C57.44 13.61 57.02 13.03 57.02 11.63L57.02 10.71L61.47 10.71L61.47 9.17C61.47 7.04 60.59 6.08 58.63 6.08C56.70 6.08 55.75 7.08 55.75 9.24L55.75 11.54C55.75 13.82 56.66 14.71 58.66 14.71C60.58 14.71 61.36 13.87 61.40 12.22ZM58.65 7.20C59.86 7.20 60.24 7.87 60.24 9.23L60.24 9.69L57.02 9.69L57.02 9.30C57.02 7.80 57.44 7.20 58.65 7.20ZM66.40 6.08C65.52 6.08 64.81 6.36 64.39 6.87L64.32 6.24L63.20 6.24L63.20 14.55L64.48 14.55L64.48 8.89C64.48 7.77 65.13 7.21 66.09 7.21C67.30 7.21 67.66 7.81 67.66 9.17L67.66 14.55L68.95 14.55L68.95 8.89C68.95 7.77 69.59 7.21 70.56 7.21C71.76 7.21 72.13 7.81 72.13 9.17L72.13 14.55L73.42 14.55L73.42 9.06C73.42 7.11 72.80 6.08 70.87 6.08C69.83 6.08 69.01 6.47 68.60 7.17C68.24 6.45 67.55 6.08 66.40 6.08ZM76.68 6.24L75.39 6.24L75.39 14.55L76.68 14.55ZM76.69 3.35L75.38 3.35L75.38 4.70L76.69 4.70Z"></path></g><!----><!----></svg>